<?xml version="1.0" encoding="utf-8"?>
<svg xmlns="http://www.w3.org/2000/svg" id="Layer_1" viewBox="0 0 400 300">
    <g class="ground">
        <path fill="none" stroke="#0e1212" stroke-linecap="round" stroke-linejoin="round" stroke-width="2" d="M28.5 258h6"/>
        <path fill="none" stroke="#0e1212" stroke-dasharray="24.337 1.014" stroke-linecap="round" stroke-linejoin="round" stroke-width="2" d="M37.5 258h24.9"/>
        <path fill="none" stroke="#0e1212" stroke-dasharray="12.168 3.042 24.337 1.014" stroke-linecap="round" stroke-linejoin="round" stroke-width="2" d="M62.9 258h202.3"/>
        <path fill="none" stroke="#0e1212" stroke-linecap="round" stroke-linejoin="round" stroke-width="2" d="M265.7 258h6"/>
    </g>
    <g>
        <path fill="#682AE9" stroke="#0e1212" stroke-linecap="round" stroke-linejoin="round" stroke-miterlimit="10" stroke-width="2">
            <animate dur="5s"
                     repeatCount="indefinite"
                     attributeName="d"
                     values="M204.2,138.9c0,0,15.5,36.3,18.3,61.5c2.8,25.1,22.9,51.3,20.6,54.4c-2.3,3-39.5,8.7-40.4,2.8S179.6,227,179.6,227l-45.7,2.5 l2-119.1L204.2,138.9z;
                     M204.2,138.9c19.4,6.1,16,35.7,18.3,61.5c2.1,24,22.9,51.3,20.6,54.4c-2.3,3-39.5,8.7-40.4,2.8S179.6,227,179.6,227l-45.7,2.5 l2-119.1L204.2,138.9z;
                     M204.2,138.9c0,0,15.5,36.3,18.3,61.5c2.8,25.1,22.9,51.3,20.6,54.4c-2.3,3-39.5,8.7-40.4,2.8S179.6,227,179.6,227l-45.7,2.5 l2-119.1L204.2,138.9z;"
                     calcMode="spline"
                     keySplines="0.455 0.03 0.515 0.955;
                     0.455 0.03 0.515 0.955"/>
        </path>

        <path fill="#682AE9" stroke="#0e1212" stroke-linecap="round" stroke-linejoin="round" stroke-miterlimit="10" stroke-width="2" d="M277.4 101.9c3.8-38.8-42.7-69.1-78.7-63.8-4.2.9-8.3 2.1-12.2 3.7-23.3 9.8-39.7 32.7-39.7 59.3 0 4.4.5 8.8 1.3 13 .9 4.2 2.1 8.2 3.8 12.1C165 158 202.7 158 231.8 158c13.1-1.4 26.2-7.2 33.9-20.8 2.3-3.4 4.4-7.1 6-10.9s2.9-7.9 3.8-12.1c.9-4.1 1.5-8.3 1.9-12.3z"/>
        <path fill="#682AE9" stroke="#0e1212" stroke-linecap="round" stroke-linejoin="round" stroke-miterlimit="10" stroke-width="2" d="M137.7 108.2s-58.4 38.6-58.4 78.2 24.6 74.1 54.4 74.1 34-3.7 38.9-3.7 25.1 7.6 28.7-2.8c3.6-10.4.8-39.4-7.1-39.4-7.9 0-33.5-1.5-45.2 5.1"/>

        <path fill="#682AE9" stroke="#0e1212" stroke-linecap="round" stroke-linejoin="round" stroke-miterlimit="10" stroke-width="2">
            <animate dur="6s"
                     repeatCount="indefinite"
                     attributeName="d"
                     values="M257.9,100.7c0,0,12.1-6.9,19.7-2.4c7.6,4.5,18.9,26.9,14.8,70.7c-2.9,31.4-20.9,48.1-18.8,71c2.1,22.9,16.6,30.9,18.5,35.2 c1.8,4.4-8,3.3-8.4,6.9c-0.4,3.6-0.1,10.9-10.6,1.1c-10.5-9.8-25.4-32-21.4-73.4s1.6-50.6,1.6-50.6S219.9,176,181.8,149l1.9-20.5;
                     M257.9,100.7c0,0,12.1-6.9,19.7-2.4c7.6,4.5,18.9,26.9,14.8,70.7c-2.9,31.4-4.6,38.3-10.4,60.6c-6.3,24.2-20.9,44.4-23.8,48.1 c-4.2,5.5-3.9,3.6-9.4,1.4c-3.4-1.4-17.6,3.1-12.1-6.9c7-12.5,14.7-21.8,18.7-63.2s-2.2-49.8-2.2-49.8S219.9,176,181.8,149 l1.9-20.5;
                     M257.9,100.7c0,0,12.1-6.9,19.7-2.4c7.6,4.5,18.9,26.9,14.8,70.7c-2.9,31.4-20.9,48.1-18.8,71c2.1,22.9,16.6,30.9,18.5,35.2 c1.8,4.4-8,3.3-8.4,6.9c-0.4,3.6-0.1,10.9-10.6,1.1c-10.5-9.8-25.4-32-21.4-73.4s1.6-50.6,1.6-50.6S219.9,176,181.8,149l1.9-20.5;"
                     calcMode="spline"
                     keySplines="0.455 0.03 0.515 0.955;
                     0.455 0.03 0.515 0.955"/>
        </path>

        <path id="nose" fill="#682AE9" stroke="#0e1212" stroke-width="2" stroke-linecap="round" stroke-linejoin="round" stroke-miterlimit="10" d="
		"
        />

        <path id="nose2" fill="#682AE9" stroke="#0e1212" stroke-width="2" stroke-linecap="round" stroke-linejoin="round" stroke-miterlimit="10" d="
		"/>

        <path fill="#682AE9" stroke="#0e1212" stroke-linecap="round" stroke-linejoin="round" stroke-miterlimit="10" stroke-width="2" d="M192.3 132.5V137.1c-.1 8.5-1.2 16.8-3.9 24.3-12.3 34-50-10.9-63.5-16.3-13.5-5.5-39-.4-39-33.1v-1.6c1.4-25.8 36.2-88.5 68.6-88.9 33-.4 57.6 24.3 57.6 24.3"/>
        <circle cx="228.5" cy="105.1" r="8.3" fill="#0e1212"/>
        <circle cx="232" cy="108.2" r="1.9" fill="#FFF"/>
        <path fill="none" stroke="#0e1212" stroke-linecap="round" stroke-linejoin="round" stroke-miterlimit="10" stroke-width="2" d="M231.2 154.4s10.5-6.1 16.3 1.8"/>
        <path fill="none" stroke="#0e1212" stroke-linecap="round" stroke-linejoin="round" stroke-miterlimit="10" stroke-width="2" d="M289.5 126.3s-8.4-3.1-17.8.9"/> <path fill="#81B0E0" d="M192.3 133.8v-1.2 1.2z"/>
    </g>
    <g>
        <path fill="none" stroke="#0e1212" stroke-linecap="round" stroke-linejoin="round" stroke-width="2" d="M299.1 258h6"/>
        <path fill="none" stroke="#0e1212" stroke-dasharray="21.343 .889" stroke-linecap="round" stroke-linejoin="round" stroke-width="2" d="M307.7 258h21.8"/>
        <path fill="none" stroke="#0e1212" stroke-dasharray="10.671 2.668 21.343 .889" stroke-linecap="round" stroke-linejoin="round" stroke-width="2" d="M330 258h35.1"/>
        <path fill="none" stroke="#0e1212" stroke-linecap="round" stroke-linejoin="round" stroke-width="2" d="M365.5 258h6"/>
    </g>
    <path fill="#ddd" stroke="#0e1212" stroke-linecap="round" stroke-linejoin="round" stroke-miterlimit="10" stroke-width="2" d="M347.4 198.3h-24.8c-1.7 0-3 1.3-3 3V255c0 1.7 1.3 3 3 3h24.8c1.7 0 3-1.3 3-3v-53.7c0-1.6-1.4-3-3-3z"/>
    <path fill="#682AE9" stroke="#0e1212" stroke-linecap="round" stroke-linejoin="round" stroke-miterlimit="10" stroke-width="2" d="M344 198.3h-21.5c-1.7 0-3 1.3-3 3V255c0 1.7 1.3 3 3 3H344c1.7 0 3-1.3 3-3v-53.7c0-1.6-1.3-3-3-3z"/>
    <path fill="#FFF" stroke="#0e1212" stroke-linecap="round" stroke-linejoin="round" stroke-miterlimit="10" stroke-width="2" d="M344 201.8h-21.5c-1.7 0-3 1.3-3 3v46.8c0 1.7 1.3 3 3 3H344c1.7 0 3-1.3 3-3v-46.8c0-1.7-1.3-3-3-3z"/>
    <circle cx="340.9" cy="229.6" r="2.1" fill="#FFF" stroke="#0e1212" stroke-linecap="round" stroke-linejoin="round" stroke-miterlimit="10" stroke-width="2"/>
</svg>